<svg id="ea5e03e3-9574-4d13-87c6-536b7dd50c0f" xmlns="http://www.w3.org/2000/svg" viewBox="0 0 835.8 500.36"><defs><style>.cls-1{fill:#f1f1f1;}.cls-2{fill:#9f616a;}.cls-3{fill:#e6a543;}.cls-4{fill:#2f2e41;}.cls-5{fill:#fff;}.cls-6{fill:#e5e5e5;}.cls-7{fill:#cbcbcb;}.cls-8{fill:none;}</style></defs><path class="cls-1" d="M228.78,375.37c0-.13-2.74-12.47,2.79-22.72s17.32-14.77,17.44-14.81l.54-.2.13.56c0,.12,2.73,12.46-2.79,22.71s-17.33,14.77-17.45,14.82l-.54.2Zm20-36.36c-2.36,1-11.69,5.46-16.36,14.12s-3.26,18.9-2.81,21.43c2.36-1,11.69-5.46,16.36-14.13s3.26-18.89,2.81-21.42Z" transform="translate(1.6)"/><path class="cls-1" d="M242.66,357.32c-9.93,6-13.76,17.84-13.76,17.84s12.28,2.18,22.22-3.79,13.75-17.85,13.75-17.85S252.59,351.34,242.66,357.32Z" transform="translate(1.6)"/><path class="cls-2" d="M393.08,261.52a5.45,5.45,0,0,0-4.31-6.38,5.21,5.21,0,0,0-1-.1l-4.6-11.57-7.71,1.08,6.73,16.24a5.48,5.48,0,0,0,10.85.73Z" transform="translate(1.6)"/><path class="cls-3" d="M378.87,257.46l-2.39-5.7-14.89-28.34L362.4,171l.16,0c9.53-1.25,16,42.64,16.24,44.51l9.41,32.18,2.24,7.09Z" transform="translate(1.6)"/><polygon class="cls-2" points="357.59 368.04 364.83 368.04 368.27 340.12 357.59 340.12 357.59 368.04"/><path class="cls-4" d="M354.15,365.67H368.4a9.09,9.09,0,0,1,9.09,9.09v.29H354.15Z" transform="translate(1.6)"/><polygon class="cls-2" points="291.03 357.01 296.97 361.15 315.76 340.21 306.99 334.1 291.03 357.01"/><path class="cls-4" d="M289.27,354l11.7,8.15h0a9.09,9.09,0,0,1,2.26,12.64l-.17.25-19.15-13.35Z" transform="translate(1.6)"/><path class="cls-4" d="M352,361.48l-.32-52.39-4.55-32.93-8.49,29,0,0-30.78,44.67-12-6.06.07-.16c.73-1.74,18-42.62,22.61-42.62a2.48,2.48,0,0,0,2.13-.94c1.36-1.81.25-5.67.24-5.71-1.33-5.5,2-7.37,2.67-7.69l1.79-36.89h.19l48.45,3.4-2,46.13-4.37,60.43-.15,0Z" transform="translate(1.6)"/><path class="cls-3" d="M374.78,261.34l-.21,0-52.11-4.2.13-17.24,2.55-45v0l10.39-22.55L342.9,169l10.74-.56h0l9.8,2.43L373.67,244Z" transform="translate(1.6)"/><circle class="cls-2" cx="350.34" cy="150.57" r="13.72"/><path class="cls-4" d="M335,154v-5.34s-4.31-5.08.43-6.36c0,0,1.29-12.79,12.5-6.82,0,0,15.52-2.56,13.8,6.4,0,0,3.87-2.34,2.58,3.63l-2.5,9.61s1.21-6.35-2.67-7.2l-2.16-1.28s-6,6-15.08-1.28c0,0-3.88-.93-3.45,2.91S335,154,335,154Z" transform="translate(1.6)"/><path class="cls-2" d="M347.32,248.46a5.44,5.44,0,0,0-5.39-5.5,5.17,5.17,0,0,0-1,.07l-6.6-10.55L327,234.92l9.53,14.78a5.48,5.48,0,0,0,10.81-1.24Z" transform="translate(1.6)"/><path class="cls-3" d="M330.27,245.14l-11.94-24.25v-.06c.05-.27,4.85-27,8.53-36.77s8.76-11.85,9-11.93l.1,0,4.55,4.35-6.29,42L341,238.68Z" transform="translate(1.6)"/><rect class="cls-1" x="603.73" y="124.43" width="23.12" height="23.12"/><rect class="cls-1" x="422.78" y="214.4" width="23.12" height="23.12"/><path class="cls-5" d="M434.16,227.39H617V134.85H434.16Z" transform="translate(1.6)"/><path class="cls-6" d="M618.47,228.9H432.65V133.34H618.47Zm-182.8-3H615.45V136.36H435.67Z" transform="translate(1.6)"/><rect class="cls-6" x="457.7" y="167.31" width="140.64" height="4.66"/><rect class="cls-6" x="457.7" y="178.62" width="140.64" height="4.66"/><rect class="cls-3" x="572.2" y="195.32" width="26.14" height="4.05"/><path class="cls-7" d="M399,375.91H207.45a.51.51,0,0,1,0-1H399a.51.51,0,0,1,0,1Z" transform="translate(1.6)"/><rect class="cls-8" width="835.8" height="500.36"/></svg>