<svg id="f2473fb9-9653-4ee7-8806-669bab6c6842" xmlns="http://www.w3.org/2000/svg" viewBox="0 0 475.38 277.47"><defs><style>.cls-1{fill:none;}.cls-2{fill:#f1f1f1;}.cls-3{fill:#9f616a;}.cls-4{fill:#e6a543;}.cls-5{fill:#2f2e41;}.cls-6{fill:#fff;}.cls-7{fill:#e5e5e5;}.cls-8{fill:#cbcbcb;}</style></defs><rect class="cls-1" width="475.38" height="277.47"/><path class="cls-2" d="M322.53,333.3c0-.08-1.64-7.48,1.68-13.63s10.39-8.86,10.46-8.88l.32-.12.08.33c0,.08,1.64,7.48-1.68,13.63s-10.39,8.86-10.46,8.88l-.32.12Zm12-21.81c-1.42.61-7,3.28-9.81,8.47s-2,11.33-1.69,12.85c1.42-.61,7-3.27,9.81-8.47s2-11.33,1.69-12.85Z" transform="translate(-215.75 -110.77)"/><path class="cls-2" d="M330.86,322.47c-6,3.58-8.25,10.7-8.25,10.7s7.36,1.31,13.32-2.27,8.25-10.71,8.25-10.71S336.82,318.89,330.86,322.47Z" transform="translate(-215.75 -110.77)"/><path class="cls-3" d="M421.08,265a3.26,3.26,0,0,0-2.58-3.83,2.78,2.78,0,0,0-.58-.06l-2.76-6.94-4.62.65,4,9.75a3.28,3.28,0,0,0,6.51.43Z" transform="translate(-215.75 -110.77)"/><path class="cls-4" d="M412.56,262.57l-1.43-3.41-8.93-17,.48-31.46h.1c5.71-.76,9.58,25.57,9.74,26.69l5.64,19.3,1.35,4.26Z" transform="translate(-215.75 -110.77)"/><polygon class="cls-3" points="183.09 218.13 187.43 218.13 189.5 201.39 183.09 201.39 183.09 218.13"/><path class="cls-5" d="M397.73,327.48h8.55a5.45,5.45,0,0,1,5.45,5.45v.18h-14Z" transform="translate(-215.75 -110.77)"/><polygon class="cls-3" points="143.16 211.52 146.73 214 158 201.44 152.74 197.78 143.16 211.52"/><path class="cls-5" d="M358.82,320.49l7,4.89h0a5.45,5.45,0,0,1,1.36,7.59l-.1.14-11.49-8Z" transform="translate(-215.75 -110.77)"/><path class="cls-5" d="M396.45,325l-.18-31.41-2.74-19.76-5.09,17.37v0L370,318l-7.18-3.64,0-.1c.44-1,10.78-25.56,13.56-25.56a1.54,1.54,0,0,0,1.28-.56c.81-1.09.15-3.4.14-3.43-.79-3.3,1.21-4.42,1.61-4.61L380.49,258h.11l29.06,2-1.22,27.66-2.62,36.25h-.09Z" transform="translate(-215.75 -110.77)"/><path class="cls-4" d="M410.11,264.9H410l-31.25-2.52L378.8,252l1.53-27v0l6.23-13.52,4.42-2,6.44-.34h0l5.88,1.46,6.11,43.91Z" transform="translate(-215.75 -110.77)"/><circle class="cls-3" cx="178.74" cy="87.69" r="8.23"/><path class="cls-5" d="M386.22,200.53v-3.21s-2.59-3,.25-3.81c0,0,.78-7.67,7.5-4.09,0,0,9.31-1.54,8.28,3.83,0,0,2.32-1.4,1.55,2.18l-1.5,5.77s.72-3.81-1.6-4.32l-1.3-.77s-3.62,3.58-9-.77c0,0-2.32-.55-2.07,1.75S386.22,200.53,386.22,200.53Z" transform="translate(-215.75 -110.77)"/><path class="cls-3" d="M393.64,257.18a3.27,3.27,0,0,0-3.24-3.3,2.73,2.73,0,0,0-.57,0l-4-6.33-4.43,1.47,5.71,8.86a3.29,3.29,0,0,0,6.49-.74Z" transform="translate(-215.75 -110.77)"/><path class="cls-4" d="M383.41,255.18l-7.16-14.54v0c0-.17,2.92-16.17,5.12-22.06s5.26-7.11,5.39-7.16l.06,0,2.72,2.61-3.77,25.18,4.07,12.15Z" transform="translate(-215.75 -110.77)"/><rect class="cls-2" x="330.73" y="72.01" width="13.87" height="13.87"/><rect class="cls-2" x="222.19" y="125.98" width="13.87" height="13.87"/><path class="cls-6" d="M445.72,244.54H555.37V189H445.72Z" transform="translate(-215.75 -110.77)"/><path class="cls-7" d="M556.27,245.44H444.82V188.13H556.27Zm-109.64-1.81H554.46V189.94H446.63Z" transform="translate(-215.75 -110.77)"/><rect class="cls-7" x="243.13" y="97.74" width="84.36" height="2.8"/><rect class="cls-7" x="243.13" y="104.52" width="84.36" height="2.8"/><rect class="cls-4" x="311.82" y="114.54" width="15.68" height="2.43"/><path class="cls-8" d="M424.61,333.62H309.74a.3.3,0,0,1,0-.6H424.61a.3.3,0,0,1,0,.6Z" transform="translate(-215.75 -110.77)"/></svg>