<svg id="f2473fb9-9653-4ee7-8806-669bab6c6842" xmlns="http://www.w3.org/2000/svg" viewBox="0 0 475.38 277.47"><defs><style>.cls-1{fill:none;}.cls-2{fill:#f1f1f1;}.cls-3{fill:#e6e6e6;}.cls-4{fill:#fff;}.cls-5{fill:#c2942a;}.cls-6{fill:#a0616a;}.cls-7{fill:#2f2e41;}.cls-8{fill:#3f3d56;}.cls-9{fill:#9e616a;}.cls-10{fill:#cacaca;}</style></defs><rect class="cls-1" width="475.38" height="277.47"/><path class="cls-2" d="M342.56,327l-.27-.5c3.63-2,8.15-4.41,10.52-8.43s2.37-9.32.13-14a24.9,24.9,0,0,0-10.14-10.34c-.93-.55-1.91-1.07-2.86-1.57a31.09,31.09,0,0,1-6.6-4.25c-2.69-2.45-4.72-6.56-3.21-10.22a6.82,6.82,0,0,1,5.89-4.12l0,.57a6.23,6.23,0,0,0-5.4,3.77c-1.41,3.41.52,7.27,3.06,9.58a30.65,30.65,0,0,0,6.49,4.16c1,.51,1.93,1,2.88,1.58a25.57,25.57,0,0,1,10.37,10.59c2.32,4.86,2.26,10.44-.16,14.55S346.26,325,342.56,327Z" transform="translate(-215.75 -110.77)"/><ellipse class="cls-2" cx="123.88" cy="163.39" rx="4.98" ry="2.42"/><ellipse class="cls-2" cx="127.87" cy="179.34" rx="4.98" ry="2.42"/><ellipse class="cls-2" cx="118.76" cy="181.9" rx="4.98" ry="2.42"/><ellipse class="cls-2" cx="133" cy="195.29" rx="4.98" ry="2.42"/><ellipse class="cls-2" cx="142.97" cy="195.29" rx="4.98" ry="2.42"/><rect id="bc1144e2-c94b-4f66-aa77-0b454dfd4174" class="cls-3" x="204.57" y="75.7" width="160.29" height="76.06"/><rect id="ad6bb9d5-2e55-4525-b077-6ac2d5f26b45" class="cls-4" x="209.15" y="82.22" width="151.13" height="63.46"/><rect id="a1fdfaec-ef9f-458a-9330-7bb8c38fec43" class="cls-5" x="204.5" y="71.3" width="160.29" height="6.81"/><circle id="ac9f2818-2064-46b1-8104-b7d94390836e" class="cls-4" cx="209.56" cy="74.45" r="1.26"/><circle id="bd067119-2054-4d5f-9303-2e8fa40cc410" class="cls-4" cx="214.35" cy="74.45" r="1.26"/><circle id="ee5e9ca0-6fca-449b-8f84-cf683813bd65" class="cls-4" cx="219.14" cy="74.45" r="1.26"/><path id="acae6c4c-8028-4596-98db-d9926d2ed09f" class="cls-3" d="M492.5,208a.62.62,0,0,0,0,1.23h33.55a.62.62,0,0,0,0-1.23Z" transform="translate(-215.75 -110.77)"/><path id="a061bcdc-636b-4d12-a036-d7339f47b36a" class="cls-3" d="M492.5,211.71a.62.62,0,0,0,0,1.23h17.13a.63.63,0,0,0,.61-.62.62.62,0,0,0-.61-.61Z" transform="translate(-215.75 -110.77)"/><path id="e4e4593e-e83d-4128-8cd7-f0323b36c2f2" class="cls-3" d="M491.65,229.47a.62.62,0,0,0,0,1.23h62.91a.62.62,0,1,0,0-1.23Z" transform="translate(-215.75 -110.77)"/><path id="bf45783c-1d79-4b4f-82bb-39fc8a52f7aa" class="cls-3" d="M491.65,233.14a.62.62,0,0,0-.61.61.61.61,0,0,0,.61.61h46.49a.61.61,0,0,0,0-1.22Z" transform="translate(-215.75 -110.77)"/><path id="b544fc92-6fc6-4255-93fb-dee32d880d89" class="cls-3" d="M491.65,236.73a.61.61,0,1,0,0,1.22h62.91a.61.61,0,0,0,0-1.22Z" transform="translate(-215.75 -110.77)"/><path id="e14bb681-aaa1-4454-9da9-28d0809a146c" class="cls-3" d="M491.65,240.4a.61.61,0,0,0,0,1.22h46.49a.61.61,0,0,0,.61-.61.61.61,0,0,0-.61-.61Z" transform="translate(-215.75 -110.77)"/><circle class="cls-6" cx="243.01" cy="115.86" r="5.32"/><path class="cls-7" d="M457.08,222.37s2.48.67,3.77.93,1.15-.49,1.15-.49,1.69.23,1.6.05.71-1.11-.22-2.18a2.06,2.06,0,0,1-.67-1.86h-.8l-.22-.31h-1.24a4.92,4.92,0,0,0-3.81-.85c-2.44.36-5.33,1.29-5.6,2.76a6.4,6.4,0,0,1-.14.65c-.66,2.82.75,5.45,2.23,8,.36.61,2.1,1.95,2.06,1s-1.57-3-.51-3.11S457.57,224.1,457.08,222.37Z" transform="translate(-215.75 -110.77)"/><path class="cls-5" d="M455.74,243.84a18.53,18.53,0,0,1-3-.5l.05-1.06.47-8.44v-.07h9.38l1.47,7.78.2,1c-.39.16-.78.3-1.18.42h0c-.56.17-1.12.32-1.69.45a20,20,0,0,1-2.3.35,17.73,17.73,0,0,1-1.79.09C456.78,243.91,456.26,243.89,455.74,243.84Z" transform="translate(-215.75 -110.77)"/><path class="cls-7" d="M449.71,242.34c-.39-.17-.76-.35-1.13-.54l-.16-.08-.33-.18-.43-.24-.4-.25h0c-.47-.3-.93-.61-1.37-.94l-.22-.17-.08-1.24.12-.07,7.53-4.79.1-.07h1.07v4a12.45,12.45,0,0,1,1.26,5.06q0,.51.09,1.05a18.53,18.53,0,0,1-3-.5l-.32-.08a17.46,17.46,0,0,1-1.86-.59l-.55-.22h0Z" transform="translate(-215.75 -110.77)"/><path class="cls-7" d="M448.09,241.54l-.43-.24-.4-.25h0c-.47-.3-.93-.61-1.37-.94l-.22-.17-.11-.09c-.27-.21-.54-.43-.8-.66l0,0a2.86,2.86,0,0,1,.86-.46l.31.09,2.18.65,0,.89Z" transform="translate(-215.75 -110.77)"/><path class="cls-7" d="M466.48,241.55l-.39.21-.08,0-.51.26h0l0,0c-.38.18-.78.36-1.18.51s-.78.3-1.18.42h0c-.56.17-1.12.32-1.69.45a3.37,3.37,0,0,1,.14-1.05v-.06l.37-6-.49-2.58,1.42-.21,7.83,4.22a21,21,0,0,1-4.4,2.7C465.94,240.64,466.4,241.18,466.48,241.55Z" transform="translate(-215.75 -110.77)"/><path class="cls-8" d="M459,242.78a16,16,0,0,1-1.7.08c-.56,0-1.1,0-1.65-.07q0,.51.09,1.05c.52,0,1,.07,1.56.07a17.73,17.73,0,0,0,1.79-.09,20,20,0,0,0,2.3-.35,3.37,3.37,0,0,1,.14-1.05v-.06A18,18,0,0,1,459,242.78Zm16.31-24.22a19.07,19.07,0,1,0-33,18.12c.17.22.35.43.53.64a.08.08,0,0,0,0,0,15.15,15.15,0,0,0,1.42,1.47l.37.33,0,0c.26.23.53.45.8.66l.11.09.22.17c.44.33.9.64,1.37.94h0l.4.25.43.24.33.18.16.08c.37.19.74.37,1.13.54l.24.1h0l.55.22a17.46,17.46,0,0,0,1.86.59l.32.08a18.53,18.53,0,0,0,3,.5c.52,0,1,.07,1.56.07a17.73,17.73,0,0,0,1.79-.09,20,20,0,0,0,2.3-.35c.57-.13,1.13-.28,1.69-.45h0c.4-.12.79-.26,1.18-.42s.8-.33,1.18-.51l0,0h0l.51-.26.08,0,.39-.21h0c.34-.19.68-.39,1-.6l.28-.18.38-.26.5-.36.16-.12c.4-.3.79-.62,1.16-1a19,19,0,0,0,5.32-20.5ZM469.67,238a17.22,17.22,0,0,1-1.47,1.24,2.8,2.8,0,0,1-.35.25l-.34.25-.3.2,0,0c-.07.06-.15.1-.22.15l-.7.42-.17.09-.09.06-.39.2-.06,0h0l-.28.14-.22.11-1,.43-1,.38-.27.09c-.41.13-.82.24-1.24.34a18,18,0,0,1-2.53.42,16,16,0,0,1-1.7.08c-.56,0-1.1,0-1.65-.07a17.78,17.78,0,0,1-2.9-.51l-.11,0a16.52,16.52,0,0,1-2.28-.77l-.12,0-.11-.05-.12,0c-.33-.14-.64-.3-1-.46l-.14-.08c-.28-.14-.56-.29-.83-.46l-.29-.17-.32-.21-.08,0c-.24-.16-.49-.33-.72-.5l-.48-.37a3.65,3.65,0,0,1-.31-.24l-.19-.16-.26-.23a4.17,4.17,0,0,1-.38-.34,16.8,16.8,0,0,1-1.38-1.42l-.42-.5a.76.76,0,0,1-.08-.11,18,18,0,1,1,26.5,1.92Z" transform="translate(-215.75 -110.77)"/><polygon class="cls-6" points="153.99 212.77 157.49 212.77 159.15 199.3 153.99 199.3 153.99 212.77"/><path class="cls-7" d="M368.85,322.39h6.88a4.39,4.39,0,0,1,4.38,4.39v.14H368.85Z" transform="translate(-215.75 -110.77)"/><polygon class="cls-6" points="167.09 212.77 170.59 212.77 172.25 199.3 167.09 199.3 167.09 212.77"/><path class="cls-7" d="M382,322.39h6.88a4.39,4.39,0,0,1,4.38,4.39v.14H382Z" transform="translate(-215.75 -110.77)"/><path class="cls-9" d="M359.15,270.31a2.85,2.85,0,0,0-.14-4,3.12,3.12,0,0,0-.4-.32l2.43-9.88-5,1.78L354.52,267a2.88,2.88,0,0,0,4.63,3.35Z" transform="translate(-215.75 -110.77)"/><path class="cls-9" d="M396.21,269.46a2.88,2.88,0,0,1,.14-4,3.9,3.9,0,0,1,.4-.31l-2.42-9.88,5,1.77,1.54,9.12a2.88,2.88,0,0,1-4.64,3.35Z" transform="translate(-215.75 -110.77)"/><polygon class="cls-7" points="147.99 152.62 152.83 209.32 159.91 208.67 162.75 164.85 165.27 182.2 165.78 209.76 172.19 209.34 175.74 179.69 174.87 150.97 150.54 148.51 147.99 152.62"/><circle class="cls-6" cx="161.31" cy="93.68" r="7.34"/><path class="cls-7" d="M374.73,198.57s3.43.92,5.2,1.29,1.59-.68,1.59-.68,2.33.31,2.21.07,1-1.53-.31-3a2.84,2.84,0,0,1-.92-2.57h-1.1l-.3-.43h-1.72a6.76,6.76,0,0,0-5.26-1.17c-3.36.49-7.35,1.78-7.71,3.8-.05.27-.12.58-.19.9-.92,3.89,1,7.52,3.06,11,.5.85,2.91,2.69,2.85,1.43s-2.17-4.11-.7-4.29S375.4,201,374.73,198.57Z" transform="translate(-215.75 -110.77)"/><path class="cls-5" d="M369.41,214.3h12.94l9.14,48.3s-8,.68-12.53,2.39-12.13-3.9-12.13-3.9Z" transform="translate(-215.75 -110.77)"/><path class="cls-7" d="M371,219.76V214.3h-1.47l-10.7,6.8,2.33,37.28s2.74,12.43,6.91,12.3S375.48,226.21,371,219.76Z" transform="translate(-215.75 -110.77)"/><path class="cls-7" d="M362.3,222.12l-3.44-1a3.6,3.6,0,0,0-2.54,3.31c0,2.57-2.19,39-2.19,39l7,.62,1.5-18.52Z" transform="translate(-215.75 -110.77)"/><path class="cls-7" d="M381.38,217.85l-.68-3.55,2-.29,7.12,2.85s6.4,46.85,3.56,48.27a5.2,5.2,0,0,1-4.77.32s-9.37-34.55-7.71-39.22Z" transform="translate(-215.75 -110.77)"/><path class="cls-7" d="M384.8,217.57,386,217a4.2,4.2,0,0,1,5.59,1.8c2,3.57,9.14,43.44,9.14,43.44l-5.86,1.1L390.51,249Z" transform="translate(-215.75 -110.77)"/><path class="cls-10" d="M432,327.08H323.48a.29.29,0,1,1,0-.57H432a.29.29,0,1,1,0,.57Z" transform="translate(-215.75 -110.77)"/></svg>